<svg width="513" height="342" viewBox="0 0 513 342" fill="none" xmlns="http://www.w3.org/2000/svg">
<g clip-path="url(#clip0_36_750)">
<path d="M0 0H513V342H0V0Z" fill="white"/>
<path d="M0 0H513V114H0V0Z" fill="#FF6820"/>
<path d="M0 228H513V342H0V228Z" fill="#046A38"/>
<path d="M256.5 223.725C285.619 223.725 309.225 200.119 309.225 171C309.225 141.881 285.619 118.275 256.5 118.275C227.381 118.275 203.775 141.881 203.775 171C203.775 200.119 227.381 223.725 256.5 223.725Z" fill="#07038D"/>
<path d="M256.5 216.6C281.684 216.6 302.1 196.184 302.1 171C302.1 145.816 281.684 125.4 256.5 125.4C231.316 125.4 210.9 145.816 210.9 171C210.9 196.184 231.316 216.6 256.5 216.6Z" fill="white"/>
<path d="M256.5 180.12C261.537 180.12 265.62 176.037 265.62 171C265.62 165.963 261.537 161.88 256.5 161.88C251.463 161.88 247.38 165.963 247.38 171C247.38 176.037 251.463 180.12 256.5 180.12Z" fill="#07038D"/>
<path d="M256.5 125.4L258.21 152.84L256.5 166.427L254.79 152.84L256.5 125.4Z" fill="#07038D"/>
<path d="M262.192 127.768C263.284 127.912 264.286 127.143 264.43 126.051C264.574 124.958 263.805 123.956 262.712 123.812C261.62 123.668 260.618 124.437 260.474 125.53C260.33 126.622 261.099 127.624 262.192 127.768Z" fill="#07038D"/>
<path d="M256.5 216.6L254.79 189.16L256.5 175.573L258.21 189.16L256.5 216.6Z" fill="#07038D"/>
<path d="M250.808 214.232C249.716 214.088 248.714 214.857 248.57 215.95C248.426 217.042 249.195 218.044 250.288 218.188C251.38 218.332 252.382 217.563 252.526 216.47C252.67 215.378 251.901 214.376 250.808 214.232Z" fill="#07038D"/>
<path d="M268.302 126.954L262.852 153.902L257.684 166.582L259.548 153.017L268.302 126.954Z" fill="#07038D"/>
<path d="M273.187 130.714C274.205 131.136 275.372 130.653 275.793 129.635C276.215 128.617 275.732 127.45 274.714 127.028C273.696 126.606 272.529 127.09 272.107 128.108C271.686 129.126 272.169 130.293 273.187 130.714Z" fill="#07038D"/>
<path d="M244.698 215.046L250.148 188.098L255.316 175.418L253.452 188.983L244.698 215.046Z" fill="#07038D"/>
<path d="M239.813 211.286C238.795 210.864 237.628 211.348 237.207 212.365C236.785 213.383 237.268 214.55 238.286 214.972C239.304 215.394 240.471 214.91 240.893 213.892C241.314 212.874 240.831 211.707 239.813 211.286Z" fill="#07038D"/>
<path d="M279.3 131.509L267.061 156.128L258.787 167.039L264.099 154.418L279.3 131.509Z" fill="#07038D"/>
<path d="M283.045 136.406C283.919 137.077 285.171 136.912 285.842 136.038C286.513 135.163 286.348 133.911 285.474 133.24C284.6 132.57 283.347 132.734 282.677 133.609C282.006 134.483 282.171 135.735 283.045 136.406Z" fill="#07038D"/>
<path d="M233.7 210.491L245.939 185.872L254.213 174.961L248.901 187.582L233.7 210.491Z" fill="#07038D"/>
<path d="M229.955 205.594C229.081 204.923 227.828 205.088 227.158 205.962C226.487 206.837 226.652 208.089 227.526 208.76C228.4 209.43 229.652 209.266 230.323 208.391C230.994 207.517 230.829 206.265 229.955 205.594Z" fill="#07038D"/>
<path d="M288.744 138.756L270.55 159.368L259.734 167.766L268.132 156.95L288.744 138.756Z" fill="#07038D"/>
<path d="M291.094 144.455C291.765 145.329 293.017 145.494 293.891 144.823C294.765 144.152 294.93 142.9 294.26 142.026C293.589 141.152 292.336 140.987 291.462 141.658C290.588 142.328 290.423 143.581 291.094 144.455Z" fill="#07038D"/>
<path d="M224.256 203.244L242.45 182.632L253.266 174.234L244.868 185.05L224.256 203.244Z" fill="#07038D"/>
<path d="M221.906 197.545C221.235 196.671 219.983 196.506 219.109 197.177C218.234 197.848 218.07 199.1 218.74 199.974C219.411 200.848 220.663 201.013 221.538 200.342C222.412 199.672 222.577 198.419 221.906 197.545Z" fill="#07038D"/>
<path d="M295.991 148.2L273.082 163.401L260.461 168.713L271.372 160.439L295.991 148.2Z" fill="#07038D"/>
<path d="M296.786 154.313C297.207 155.331 298.374 155.814 299.392 155.393C300.41 154.971 300.894 153.804 300.472 152.786C300.05 151.768 298.883 151.285 297.865 151.706C296.848 152.128 296.364 153.295 296.786 154.313Z" fill="#07038D"/>
<path d="M217.009 193.8L239.918 178.599L252.539 173.287L241.628 181.561L217.009 193.8Z" fill="#07038D"/>
<path d="M216.214 187.687C215.793 186.669 214.626 186.186 213.608 186.607C212.59 187.029 212.106 188.196 212.528 189.214C212.95 190.232 214.117 190.715 215.135 190.293C216.153 189.872 216.636 188.705 216.214 187.687Z" fill="#07038D"/>
<path d="M300.546 159.198L274.484 167.952L260.918 169.816L273.598 164.648L300.546 159.198Z" fill="#07038D"/>
<path d="M299.732 165.308C299.876 166.401 300.878 167.17 301.97 167.026C303.063 166.882 303.832 165.88 303.688 164.788C303.544 163.695 302.542 162.926 301.449 163.07C300.357 163.214 299.588 164.216 299.732 165.308Z" fill="#07038D"/>
<path d="M212.454 182.802L238.517 174.048L252.083 172.184L239.402 177.352L212.454 182.802Z" fill="#07038D"/>
<path d="M213.268 176.692C213.124 175.599 212.122 174.83 211.03 174.974C209.937 175.118 209.168 176.12 209.312 177.212C209.456 178.305 210.458 179.074 211.551 178.93C212.643 178.786 213.412 177.784 213.268 176.692Z" fill="#07038D"/>
<path d="M302.1 171L274.66 172.71L261.073 171L274.66 169.29L302.1 171Z" fill="#07038D"/>
<path d="M299.732 176.692C299.588 177.784 300.357 178.786 301.45 178.93C302.542 179.074 303.544 178.305 303.688 177.212C303.832 176.12 303.063 175.118 301.97 174.974C300.878 174.83 299.876 175.599 299.732 176.692Z" fill="#07038D"/>
<path d="M210.9 171L238.34 169.29L251.927 171L238.34 172.71L210.9 171Z" fill="#07038D"/>
<path d="M213.268 165.308C213.412 164.216 212.643 163.214 211.551 163.07C210.458 162.926 209.456 163.695 209.312 164.788C209.168 165.88 209.937 166.882 211.03 167.026C212.122 167.17 213.124 166.401 213.268 165.308Z" fill="#07038D"/>
<path d="M300.546 182.802L273.598 177.352L260.918 172.184L274.484 174.048L300.546 182.802Z" fill="#07038D"/>
<path d="M296.786 187.687C296.364 188.705 296.848 189.872 297.865 190.293C298.883 190.715 300.05 190.232 300.472 189.214C300.894 188.196 300.41 187.029 299.392 186.607C298.374 186.186 297.207 186.669 296.786 187.687Z" fill="#07038D"/>
<path d="M212.454 159.198L239.402 164.648L252.082 169.816L238.517 167.952L212.454 159.198Z" fill="#07038D"/>
<path d="M216.214 154.313C216.636 153.295 216.153 152.128 215.135 151.706C214.117 151.285 212.95 151.768 212.528 152.786C212.106 153.804 212.59 154.971 213.608 155.393C214.626 155.814 215.793 155.331 216.214 154.313Z" fill="#07038D"/>
<path d="M295.991 193.8L271.372 181.561L260.461 173.287L273.082 178.599L295.991 193.8Z" fill="#07038D"/>
<path d="M291.094 197.545C290.423 198.419 290.588 199.671 291.462 200.342C292.337 201.013 293.589 200.848 294.26 199.974C294.93 199.1 294.766 197.847 293.891 197.177C293.017 196.506 291.765 196.671 291.094 197.545Z" fill="#07038D"/>
<path d="M217.009 148.2L241.628 160.439L252.539 168.713L239.918 163.401L217.009 148.2Z" fill="#07038D"/>
<path d="M221.906 144.455C222.577 143.581 222.412 142.328 221.538 141.658C220.664 140.987 219.411 141.152 218.74 142.026C218.07 142.9 218.235 144.152 219.109 144.823C219.983 145.494 221.235 145.329 221.906 144.455Z" fill="#07038D"/>
<path d="M288.744 203.244L268.132 185.05L259.734 174.234L270.55 182.632L288.744 203.244Z" fill="#07038D"/>
<path d="M283.045 205.594C282.171 206.265 282.006 207.517 282.677 208.391C283.348 209.266 284.6 209.43 285.474 208.76C286.348 208.089 286.513 206.837 285.842 205.962C285.172 205.088 283.919 204.923 283.045 205.594Z" fill="#07038D"/>
<path d="M224.256 138.756L244.868 156.95L253.266 167.766L242.45 159.368L224.256 138.756Z" fill="#07038D"/>
<path d="M229.955 136.406C230.829 135.735 230.994 134.483 230.323 133.609C229.653 132.734 228.4 132.57 227.526 133.24C226.652 133.911 226.487 135.163 227.158 136.038C227.829 136.912 229.081 137.077 229.955 136.406Z" fill="#07038D"/>
<path d="M279.3 210.491L264.099 187.582L258.787 174.961L267.061 185.872L279.3 210.491Z" fill="#07038D"/>
<path d="M273.187 211.286C272.169 211.707 271.686 212.874 272.107 213.892C272.529 214.91 273.696 215.394 274.714 214.972C275.732 214.55 276.215 213.383 275.793 212.365C275.372 211.348 274.205 210.864 273.187 211.286Z" fill="#07038D"/>
<path d="M233.7 131.509L248.901 154.418L254.213 167.039L245.939 156.128L233.7 131.509Z" fill="#07038D"/>
<path d="M239.813 130.714C240.831 130.293 241.314 129.126 240.893 128.108C240.471 127.09 239.304 126.606 238.286 127.028C237.268 127.45 236.785 128.617 237.207 129.635C237.628 130.652 238.795 131.136 239.813 130.714Z" fill="#07038D"/>
<path d="M268.302 215.046L259.548 188.983L257.684 175.418L262.852 188.098L268.302 215.046Z" fill="#07038D"/>
<path d="M262.192 214.232C261.099 214.376 260.33 215.378 260.474 216.47C260.618 217.563 261.62 218.332 262.712 218.188C263.805 218.044 264.574 217.042 264.43 215.949C264.286 214.857 263.284 214.088 262.192 214.232Z" fill="#07038D"/>
<path d="M244.698 126.954L253.452 153.017L255.316 166.582L250.148 153.902L244.698 126.954Z" fill="#07038D"/>
<path d="M250.808 127.768C251.901 127.624 252.67 126.622 252.526 125.53C252.382 124.437 251.38 123.668 250.288 123.812C249.195 123.956 248.426 124.958 248.57 126.051C248.714 127.143 249.716 127.912 250.808 127.768Z" fill="#07038D"/>
</g>
<defs>
<clipPath id="clip0_36_750">
<rect width="513" height="342" fill="white"/>
</clipPath>
</defs>
</svg>
