<svg width="368" height="337" viewBox="0 0 368 337" fill="none" xmlns="http://www.w3.org/2000/svg">
<rect y="195" width="78" height="13" fill="#838383"/>
<rect x="117" y="195" width="65" height="13" fill="#838383"/>
<rect x="169" y="143" width="13" height="52" fill="#919191"/>
<path fill-rule="evenodd" clip-rule="evenodd" d="M130 0H117V52V55.8049V65H169V104H182V65V52H169H130V0Z" fill="#919191"/>
<path fill-rule="evenodd" clip-rule="evenodd" d="M13 0H0V13V195H13V13H117V0H13Z" fill="#A0A0A0"/>
<rect x="130" y="13" width="13" height="13" fill="#A0A0A0"/>
<rect x="130" width="13" height="13" fill="#A0A0A0" fill-opacity="0.1"/>
<rect x="143" y="13" width="13" height="13" fill="#A0A0A0" fill-opacity="0.1"/>
<rect x="156" y="26" width="13" height="13" fill="#A0A0A0" fill-opacity="0.1"/>
<rect x="169" y="39" width="13" height="13" fill="#A0A0A0" fill-opacity="0.1"/>
<path fill-rule="evenodd" clip-rule="evenodd" d="M143 26H130V39V52H143H156V39H143V26Z" fill="white"/>
<rect x="143" y="26" width="13" height="13" fill="#A0A0A0"/>
<rect x="156" y="39" width="13" height="13" fill="#A0A0A0"/>
<rect x="13" y="182" width="13" height="13" fill="#7BC274"/>
<rect x="13" y="169" width="13" height="13" fill="#C6DDE5"/>
<rect x="26" y="156" width="13" height="13" fill="#A0C6B7"/>
<rect x="13" y="13" width="104" height="13" fill="#F1F6FC"/>
<rect x="13" y="26" width="13" height="13" fill="#E0E9F8"/>
<rect x="26" y="26" width="78" height="13" fill="#DCE4F9"/>
<rect x="104" y="26" width="13" height="13" fill="#E0E9F8"/>
<path fill-rule="evenodd" clip-rule="evenodd" d="M78 39H52V52H39V65H26V78H91V65V52H78V39Z" fill="white"/>
<rect x="104" y="65" width="13" height="13" fill="#D0DBF1"/>
<rect x="104" y="78" width="13" height="13" fill="#CDDBF5"/>
<rect x="117" y="65" width="13" height="13" fill="#E5EBF9"/>
<rect x="156" y="65" width="13" height="13" fill="#F3F6FD"/>
<rect x="156" y="78" width="13" height="13" fill="#E3EAFA"/>
<path fill-rule="evenodd" clip-rule="evenodd" d="M143 78H130V91H143H156V78H143Z" fill="#D6E1F7"/>
<rect x="117" y="78" width="13" height="13" fill="#D3DFF7"/>
<path fill-rule="evenodd" clip-rule="evenodd" d="M78 104H26V130H78V117H104V130H156V104H104H78Z" fill="#C5D2F2"/>
<rect x="130" y="130" width="13" height="13" fill="#C2D0ED"/>
<path fill-rule="evenodd" clip-rule="evenodd" d="M169 156H156V169V182H169V169V156Z" fill="#C2D0ED"/>
<rect x="117" y="130" width="13" height="13" fill="#B4CCD6"/>
<rect x="104" y="130" width="13" height="13" fill="#6CB762"/>
<path fill-rule="evenodd" clip-rule="evenodd" d="M169 91H156V104V117H169V104V91Z" fill="#DAE5FB"/>
<path fill-rule="evenodd" clip-rule="evenodd" d="M143 65H130V78H143H156V65H143Z" fill="#EEF2FB"/>
<rect x="91" y="65" width="13" height="13" fill="#CCDAF5"/>
<rect x="26" y="78" width="78" height="13" fill="#CADAF4"/>
<path fill-rule="evenodd" clip-rule="evenodd" d="M117 39H104V52V65H117V52V39Z" fill="#D7E2F8"/>
<path fill-rule="evenodd" clip-rule="evenodd" d="M26 65V52V39H39H52V52H39V65H26Z" fill="#CFDDF8"/>
<path fill-rule="evenodd" clip-rule="evenodd" d="M104 65L91 65L91 52L78 52L78 39L91 39L104 39L104 52L104 65Z" fill="#CFDDF8"/>
<rect x="39" y="143" width="13" height="13" fill="#A0C6B7"/>
<rect x="52" y="130" width="13" height="13" fill="#A0C6B7"/>
<rect x="104" y="130" width="13" height="13" fill="#6CB762"/>
<path fill-rule="evenodd" clip-rule="evenodd" d="M143 182H130V195H143H156V182H143Z" fill="#56B33E"/>
<rect x="143" y="169" width="13" height="13" fill="#6CB762"/>
<rect x="117" y="130" width="13" height="13" fill="#B4CCD6"/>
<rect x="156" y="182" width="13" height="13" fill="#7BC274"/>
<rect x="78" y="117" width="13" height="13" fill="#B6CFD6"/>
<rect x="65" y="130" width="13" height="13" fill="#55AD3D"/>
<path fill-rule="evenodd" clip-rule="evenodd" d="M78 130H91H104V143H117H130V156H117V169H104V182H91V195H78H65H52H39H26V169H39V156H52V143H65H78V130Z" fill="#56B33E"/>
<rect x="13" y="39" width="13" height="130" fill="#D7E1FA"/>
<path fill-rule="evenodd" clip-rule="evenodd" d="M78 117H91H104V130H91H78V117Z" fill="#B6CFD6"/>
<path fill-rule="evenodd" clip-rule="evenodd" d="M52 130H39H32.5H26V143V156H32.5H39V143H52V130Z" fill="#C2CFEF"/>
<path fill-rule="evenodd" clip-rule="evenodd" d="M26 91H91H156V104H91H26V91Z" fill="#C7D6F3"/>
<path d="M313.511 273.273C312.557 273.831 312.236 275.056 312.794 276.009C313.351 276.963 314.576 277.284 315.53 276.727L313.511 273.273ZM365.907 203.09L367.904 202.981L365.907 203.09ZM340.296 168.181L339.136 169.81L339.161 169.828L339.186 169.845L340.296 168.181ZM215.586 150.518C214.805 151.3 214.805 152.566 215.586 153.347L228.314 166.075C229.095 166.856 230.361 166.856 231.142 166.075C231.923 165.294 231.923 164.027 231.142 163.246L219.828 151.933L231.142 140.619C231.923 139.838 231.923 138.572 231.142 137.791C230.361 137.01 229.095 137.01 228.314 137.791L215.586 150.518ZM315.53 276.727C343.077 260.625 369.809 237.748 367.904 202.981L363.91 203.2C365.678 235.465 340.958 257.231 313.511 273.273L315.53 276.727ZM367.904 202.981C367.497 195.556 363.634 188.315 358.611 182.081C353.565 175.818 347.189 170.374 341.405 166.517L339.186 169.845C344.69 173.515 350.746 178.695 355.497 184.591C360.27 190.514 363.569 196.964 363.91 203.2L367.904 202.981ZM341.455 166.551C330.952 159.077 310.261 152.057 286.294 149.94L285.942 153.925C309.509 156.006 329.421 162.897 339.136 169.81L341.455 166.551ZM286.294 149.94C262.426 147.833 239.779 149.933 217 149.933V153.933C240.291 153.933 262.276 151.835 285.942 153.925L286.294 149.94Z" fill="#05032A"/>
<path d="M154.478 262.99C155.524 263.395 156.036 263.993 156.015 264.785L156.011 286.346L155.828 293.302C155.794 294.584 155.23 295.21 154.137 295.181L153.402 295.162C152.735 294.691 152.41 294.155 152.426 293.551L152.599 286.991L152.682 264.583C152.707 263.641 153.305 263.11 154.478 262.99Z" fill="#05032A"/>
<path d="M145.035 262.74C146.08 263.145 146.593 263.743 146.572 264.535L146.568 286.096L146.384 293.052C146.35 294.334 145.787 294.96 144.693 294.932L143.958 294.912C143.291 294.442 142.966 293.905 142.982 293.302L143.155 286.742L143.238 264.334C143.263 263.391 143.862 262.86 145.035 262.74Z" fill="#05032A"/>
<path d="M134.106 264.149C135.53 264.489 136.23 265.148 136.204 266.129C135.799 267.174 135.182 267.686 134.352 267.664C132.964 267.363 132.285 266.648 132.315 265.517C132.717 264.584 133.314 264.128 134.106 264.149ZM136.045 272.123C136.649 272.139 137.143 272.699 137.529 273.803L136.914 277.805L136.844 280.463C136.762 283.555 137.183 287.621 138.106 292.664C137.71 293.37 137.059 293.711 136.155 293.687C134.609 293.646 133.711 289.095 133.46 280.034L133.512 278.055C133.617 274.058 134.462 272.081 136.045 272.123Z" fill="#05032A"/>
<path d="M126.479 275.662C129.035 277.465 130.265 280.176 130.169 283.795C130.039 288.697 128.311 291.99 124.984 293.675L122.826 293.958C121.545 293.924 120.204 293.266 118.804 291.984L118.408 291.973C117.2 293.451 116.086 294.176 115.068 294.149C112.392 294.078 110.913 291.511 110.631 286.448L110.712 283.394C111.102 278.613 112.165 276.246 113.899 276.292C114.842 276.316 115.373 276.915 115.493 278.088C114.586 279.573 114.096 281.673 114.025 284.387L113.996 285.462C114.057 288.859 114.371 290.565 114.936 290.58C115.502 290.595 116.112 289.63 116.767 287.686L116.757 283.781C116.826 281.179 117.482 279.895 118.726 279.928C120.159 279.966 120.838 281.398 120.763 284.226L120.99 284.232L120.33 287.78C120.921 289.682 121.782 290.648 122.913 290.678L123.252 290.687C124.911 290.73 126.033 288.987 126.616 285.456L126.7 282.289C126.732 281.083 126.055 279.574 124.669 277.765L124.456 277.25C124.477 276.458 125.151 275.929 126.479 275.662Z" fill="#05032A"/>
<path d="M212.511 272.917L212.627 272.919C213.405 272.93 213.882 273.56 214.057 274.808C213.025 278.72 212.492 281.746 212.459 283.885C213.444 285.612 214.89 286.49 216.795 286.519C217.293 286.993 217.539 287.483 217.531 287.989L217.52 288.689C217.159 289.422 216.376 289.78 215.17 289.761C214.082 289.667 213.039 289.203 212.041 288.371L211.516 288.363C211.024 292.518 210.428 294.59 209.728 294.579L208.678 294.563C207.83 294.083 207.411 293.532 207.42 292.91L208.662 284.177L208.666 283.944C206.058 278.964 204.764 275.871 204.782 274.665C204.796 273.732 205.465 273.256 206.788 273.238C207.721 273.252 208.554 274.762 209.286 277.768L209.515 278.005L209.865 278.011C210.307 274.594 211.188 272.896 212.511 272.917Z" fill="#05032A"/>
<path d="M196.941 259.142C198.414 259.476 199.143 260.148 199.127 261.159C198.722 262.242 198.091 262.777 197.236 262.764C195.801 262.47 195.093 261.739 195.11 260.573C195.514 259.606 196.124 259.13 196.941 259.142ZM199.033 267.343C199.655 267.352 200.171 267.924 200.582 269.058L199.993 273.192L199.951 275.934C199.903 279.122 200.383 283.311 201.393 288.5C200.992 289.233 200.326 289.592 199.392 289.578C197.798 289.554 196.819 284.871 196.457 275.53L196.488 273.488C196.551 269.366 197.399 267.318 199.033 267.343Z" fill="#05032A"/>
<path d="M189.555 263.172C191.383 263.2 192.617 265.163 193.257 269.063L193.254 269.296C193.24 270.191 192.629 270.706 191.421 270.843C190.449 270.829 189.807 269.613 189.494 267.196L189.263 267.018L188.563 267.007C187.688 268.239 187.235 269.865 187.205 271.887L187.335 274.807C188.89 274.831 190.588 274.448 192.429 273.66C193.167 273.671 193.84 274.206 194.446 275.266C194.422 276.86 192.228 277.877 187.865 278.316L189.177 287.846C189.165 288.663 188.476 289.177 187.112 289.39C185.906 289.371 185.332 287.496 185.389 283.762L184.357 278.787L180.556 279.312C179.739 279.3 179.262 278.69 179.125 277.482C179.143 276.315 180.73 275.6 183.884 275.337L183.706 271.717C184.417 265.971 186.366 263.123 189.555 263.172Z" fill="#05032A"/>
<path d="M295.403 269.643C296.4 269.669 297.039 271.367 297.321 274.736C296.928 275.649 296.307 276.095 295.458 276.073C294.87 275.946 294.297 275.248 293.739 273.978L292.751 273.62C291.016 273.575 289.417 274.678 287.955 276.931L287.942 277.429C287.928 277.983 290.506 278.973 295.678 280.4C297.823 281.749 298.871 283.346 298.823 285.192C298.745 288.219 296.241 290.74 291.313 292.755L289.255 293.034C286.163 292.621 284.652 291.03 284.724 288.262L284.729 288.096C284.752 287.21 285.337 286.708 286.485 286.59C287.371 286.613 287.938 287.551 288.186 289.404L288.62 289.748L289.561 289.773C291.666 289.827 293.659 288.438 295.543 285.606L295.562 284.886C295.59 283.778 293.199 282.682 288.388 281.597C285.868 280.497 284.631 279.024 284.679 277.178C284.742 274.779 286.812 272.579 290.89 270.579C292.668 270.404 294.172 270.092 295.403 269.643Z" fill="#05032A"/>
<path d="M276.938 262.737C278.333 263.068 279.019 263.714 278.994 264.674C278.598 265.698 277.994 266.2 277.181 266.179C275.822 265.885 275.157 265.184 275.186 264.077C275.579 263.163 276.163 262.717 276.938 262.737ZM278.841 270.544C279.432 270.559 279.917 271.107 280.295 272.188L279.695 276.107L279.627 278.71C279.549 281.737 279.962 285.719 280.869 290.655C280.481 291.347 279.845 291.682 278.959 291.659C277.445 291.619 276.563 287.164 276.313 278.291L276.363 276.353C276.465 272.44 277.291 270.504 278.841 270.544Z" fill="#05032A"/>
<path d="M262.475 260.644C263.509 260.671 263.993 261.939 263.928 264.449L264.345 273.991L264.567 273.997L267.363 273.017C270.464 273.097 272.264 276.321 272.764 282.687C272.976 284.503 273.036 287.164 272.945 290.671L272.829 295.157C272.792 296.56 272.257 297.248 271.223 297.221L271.002 297.215C270.009 297.041 269.525 296.493 269.548 295.57L269.684 290.365C269.9 282.022 269.207 277.386 267.606 276.458L267.274 276.45C266.166 276.421 265.31 278.098 264.705 281.481L264.625 284.582C264.481 290.119 263.948 292.876 263.025 292.852L261.97 292.936C260.936 292.909 260.459 291.363 260.539 288.299C260.734 285.054 261.024 282.401 261.41 280.343L260.72 262.094C260.745 261.135 261.33 260.651 262.475 260.644Z" fill="#05032A"/>
<path d="M247.079 257.197C248.107 257.445 248.61 257.975 248.589 258.787L248.194 261.215L248.175 261.935C248.133 263.56 248.273 265.281 248.595 267.099L248.706 267.102C253.022 265.921 255.696 265.344 256.73 265.371C257.793 265.694 258.314 266.243 258.294 267.018C258.262 268.274 256.972 268.868 254.425 268.802L248.612 270.702C248.483 275.685 248.843 282.473 249.691 291.066C249.444 292.057 248.896 292.541 248.047 292.519L247.936 292.516C246.644 292.483 246.041 290.805 246.127 287.482C245.711 284.996 245.444 279.615 245.327 271.337L244.33 271.311C240.866 270.999 239.152 270.142 239.188 268.739C239.198 268.333 239.599 267.845 240.39 267.274L240.943 267.289L243.473 268.019L245.245 268.065L244.926 261.131C244.995 258.473 245.713 257.161 247.079 257.197Z" fill="#05032A"/>
<path d="M169.73 328.714C170.505 328.694 170.983 329.31 171.163 330.561C170.975 331.859 170.345 332.522 169.275 332.549C168.536 332.568 168.003 331.936 167.674 330.651C168.085 329.385 168.77 328.739 169.73 328.714Z" fill="#05032A"/>
<path d="M159.672 328.973C160.447 328.953 160.924 329.569 161.104 330.82C160.916 332.118 160.287 332.781 159.216 332.808C158.478 332.827 157.944 332.194 157.616 330.91C158.027 329.643 158.712 328.998 159.672 328.973Z" fill="#05032A"/>
<path d="M149.613 329.232C150.389 329.212 150.866 329.828 151.046 331.079C150.858 332.377 150.228 333.039 149.158 333.067C148.419 333.086 147.886 332.453 147.557 331.169C147.968 329.902 148.653 329.256 149.613 329.232Z" fill="#05032A"/>
<path d="M256.907 331.662C257.683 331.642 258.16 332.258 258.34 333.509C258.152 334.807 257.523 335.469 256.452 335.497C255.714 335.516 255.18 334.883 254.852 333.599C255.262 332.332 255.948 331.687 256.907 331.662Z" fill="#05032A"/>
<path d="M265.747 330.483C266.522 330.463 266.999 331.079 267.179 332.33C266.991 333.628 266.362 334.291 265.291 334.318C264.553 334.337 264.019 333.705 263.691 332.42C264.101 331.154 264.787 330.508 265.747 330.483Z" fill="#05032A"/>
<path d="M275.175 332.84C275.951 332.82 276.428 333.436 276.608 334.687C276.42 335.985 275.79 336.648 274.72 336.675C273.981 336.694 273.448 336.062 273.119 334.777C273.53 333.511 274.215 332.865 275.175 332.84Z" fill="#05032A"/>
<path d="M232.703 313.387C235.848 313.565 237.456 315.057 237.528 317.862L237.657 318.579L237.769 327.221C237.794 328.218 238.401 329.55 239.589 331.219L239.592 331.33C239.324 332.408 238.803 332.957 238.028 332.977C235.714 332.076 234.518 330.075 234.438 326.974L234.419 326.254L234.25 326.148L234.411 325.922L234.408 325.811L234.377 318.165C234.35 317.095 233.875 316.571 232.952 316.595L232.287 316.612C230.46 317.398 229.641 321.464 229.83 328.81C229.896 331.358 229.283 332.648 227.991 332.681C226.994 332.707 226.461 332.092 226.392 330.838L226.249 325.301C226.065 318.139 226.6 314.542 227.856 314.51L228.405 314.329L229.572 314.465C230.552 313.775 231.595 313.416 232.703 313.387Z" fill="#05032A"/>
<path d="M216.57 311.586C219.302 311.516 221.421 313.493 222.929 317.518L223.18 318.675C223.282 322.625 221.54 326.715 217.955 330.944C216.513 332.348 215.035 333.07 213.522 333.109C211.307 333.166 209.705 331.932 208.717 329.409C208.354 328.236 208.161 327.207 208.139 326.321L208.122 325.656C207.971 319.823 209.98 315.339 214.148 312.202C214.877 311.814 215.684 311.609 216.57 311.586ZM211.403 326.126C211.467 328.636 212.146 329.875 213.438 329.842C216.133 329.772 218.277 326.263 219.872 319.314L219.845 318.262C219.158 315.989 217.966 314.875 216.268 314.918C215.603 314.936 215.283 315.406 215.307 316.328C215.323 316.956 214.597 317.473 213.13 317.881C211.894 320.092 211.318 322.84 211.403 326.126Z" fill="#05032A"/>
<path d="M198.833 312.042C201.565 311.972 203.684 313.949 205.192 317.974L205.443 319.131C205.545 323.081 203.803 327.171 200.217 331.401C198.776 332.805 197.298 333.526 195.785 333.565C193.57 333.622 191.968 332.389 190.98 329.865C190.617 328.692 190.424 327.663 190.402 326.777L190.384 326.112C190.234 320.28 192.243 315.795 196.411 312.659C197.139 312.271 197.947 312.065 198.833 312.042ZM193.666 326.582C193.73 329.092 194.409 330.331 195.701 330.298C198.396 330.228 200.54 326.719 202.135 319.77L202.108 318.718C201.421 316.446 200.229 315.331 198.531 315.375C197.866 315.392 197.546 315.862 197.57 316.785C197.586 317.412 196.86 317.93 195.393 318.337C194.157 320.548 193.581 323.297 193.666 326.582Z" fill="#05032A"/>
<path d="M184.083 310.87C185.08 310.845 185.806 312.507 186.262 315.857C185.916 316.789 185.319 317.266 184.47 317.288C183.876 317.192 183.268 316.525 182.645 315.285L181.64 314.978C179.905 315.023 178.365 316.208 177.021 318.532L177.034 319.031C177.048 319.585 179.675 320.44 184.913 321.599C187.125 322.835 188.254 324.376 188.302 326.221C188.379 329.249 186.009 331.895 181.191 334.162L179.151 334.547C176.042 334.294 174.451 332.784 174.38 330.015L174.376 329.849C174.353 328.963 174.912 328.431 176.052 328.254C176.938 328.232 177.553 329.139 177.896 330.977L178.347 331.298L179.289 331.274C181.393 331.22 183.312 329.73 185.047 326.804L185.029 326.084C185 324.977 182.556 324.005 177.695 323.17C175.121 322.202 173.81 320.795 173.763 318.949C173.701 316.549 175.655 314.245 179.625 312.038C181.391 311.771 182.877 311.381 184.083 310.87Z" fill="#05032A"/>
<path d="M88.8053 261.201C89.6549 261.201 90.2035 261.679 90.4513 262.633L90.1327 266.01V267.098C91.0177 274.998 91.5664 281.142 91.7788 285.531C92.1681 289.614 92.5752 291.656 93 291.656C93 292.457 92.3805 292.972 91.1416 293.201C89.3717 293.201 88.4867 289.347 88.4867 281.638L87 266.754V266.239C87 262.881 87.6018 261.201 88.8053 261.201Z" fill="#05032A"/>
</svg>
