<svg width="394" height="524" viewBox="0 0 394 524" fill="none" xmlns="http://www.w3.org/2000/svg">
<path d="M321.638 427.919C320.563 428.171 319.895 429.247 320.147 430.323C320.399 431.398 321.475 432.066 322.551 431.813L321.638 427.919ZM368.264 394.571L370.157 395.216L368.264 394.571ZM363.151 366.619L361.393 367.573L361.408 367.601L361.424 367.628L363.151 366.619ZM299.335 327.945C298.323 328.387 297.859 329.565 298.301 330.578L305.491 347.079C305.932 348.092 307.111 348.555 308.124 348.114C309.136 347.673 309.599 346.494 309.158 345.481L302.767 330.813L317.435 324.422C318.447 323.981 318.91 322.802 318.469 321.789C318.028 320.777 316.849 320.314 315.837 320.755L299.335 327.945ZM322.551 431.813C341.772 427.308 362.332 418.2 370.157 395.216L366.371 393.927C359.237 414.878 340.49 423.5 321.638 427.919L322.551 431.813ZM370.157 395.216C371.844 390.26 371.566 384.679 370.391 379.517C369.212 374.335 367.089 369.396 364.878 365.611L361.424 367.628C363.455 371.104 365.412 375.664 366.491 380.404C367.574 385.165 367.732 389.929 366.371 393.927L370.157 395.216ZM364.91 365.666C360.975 358.41 351.319 349.345 338.686 342.792L336.844 346.343C349.028 352.663 357.959 361.241 361.393 367.573L364.91 365.666ZM338.686 342.792C326.171 336.301 313.126 332.736 300.866 327.917L299.403 331.64C312.225 336.68 324.542 339.962 336.844 346.343L338.686 342.792Z" fill="#05032A"/>
<rect x="106" y="353" width="78" height="13" fill="#838383"/>
<rect x="223" y="353" width="65" height="13" fill="#838383"/>
<rect x="275" y="301" width="13" height="52" fill="#919191"/>
<path fill-rule="evenodd" clip-rule="evenodd" d="M236 158H223V210V213.805V223H275V262H288V223V210H275H236V158Z" fill="#919191"/>
<path fill-rule="evenodd" clip-rule="evenodd" d="M119 158H106V171V353H119V171H223V158H119Z" fill="#A0A0A0"/>
<rect x="236" y="171" width="13" height="13" fill="#A0A0A0"/>
<rect x="236" y="158" width="13" height="13" fill="#A0A0A0" fill-opacity="0.1"/>
<rect x="249" y="171" width="13" height="13" fill="#A0A0A0" fill-opacity="0.1"/>
<rect x="262" y="184" width="13" height="13" fill="#A0A0A0" fill-opacity="0.1"/>
<rect x="275" y="197" width="13" height="13" fill="#A0A0A0" fill-opacity="0.1"/>
<path fill-rule="evenodd" clip-rule="evenodd" d="M249 184H236V197V210H249H262V197H249V184Z" fill="white"/>
<rect x="249" y="184" width="13" height="13" fill="#A0A0A0"/>
<rect x="262" y="197" width="13" height="13" fill="#A0A0A0"/>
<rect x="119" y="340" width="13" height="13" fill="#7BC274"/>
<rect x="119" y="327" width="13" height="13" fill="#C6DDE5"/>
<rect x="132" y="314" width="13" height="13" fill="#A0C6B7"/>
<rect x="119" y="171" width="104" height="13" fill="#F1F6FC"/>
<rect x="119" y="184" width="13" height="13" fill="#E0E9F8"/>
<rect x="132" y="184" width="78" height="13" fill="#DCE4F9"/>
<rect x="210" y="184" width="13" height="13" fill="#E0E9F8"/>
<path fill-rule="evenodd" clip-rule="evenodd" d="M184 197H158V210H145V223H132V236H197V223V210H184V197Z" fill="white"/>
<rect x="210" y="223" width="13" height="13" fill="#D0DBF1"/>
<rect x="210" y="236" width="13" height="13" fill="#CDDBF5"/>
<rect x="223" y="223" width="13" height="13" fill="#E5EBF9"/>
<rect x="262" y="223" width="13" height="13" fill="#F3F6FD"/>
<rect x="262" y="236" width="13" height="13" fill="#E3EAFA"/>
<path fill-rule="evenodd" clip-rule="evenodd" d="M249 236H236V249H249H262V236H249Z" fill="#D6E1F7"/>
<rect x="223" y="236" width="13" height="13" fill="#D3DFF7"/>
<path fill-rule="evenodd" clip-rule="evenodd" d="M184 262H132V288H184V275H210V288H262V262H210H184Z" fill="#C5D2F2"/>
<rect x="236" y="288" width="13" height="13" fill="#C2D0ED"/>
<path fill-rule="evenodd" clip-rule="evenodd" d="M275 314H262V327V340H275V327V314Z" fill="#C2D0ED"/>
<rect x="223" y="288" width="13" height="13" fill="#B4CCD6"/>
<rect x="210" y="288" width="13" height="13" fill="#6CB762"/>
<path fill-rule="evenodd" clip-rule="evenodd" d="M275 249H262V262V275H275V262V249Z" fill="#DAE5FB"/>
<path fill-rule="evenodd" clip-rule="evenodd" d="M249 223H236V236H249H262V223H249Z" fill="#EEF2FB"/>
<rect x="197" y="223" width="13" height="13" fill="#CCDAF5"/>
<rect x="132" y="236" width="78" height="13" fill="#CADAF4"/>
<path fill-rule="evenodd" clip-rule="evenodd" d="M223 197H210V210V223H223V210V197Z" fill="#D7E2F8"/>
<path fill-rule="evenodd" clip-rule="evenodd" d="M132 223V210V197H145H158V210H145V223H132Z" fill="#CFDDF8"/>
<path fill-rule="evenodd" clip-rule="evenodd" d="M210 223L197 223L197 210L184 210L184 197L197 197L210 197L210 210L210 223Z" fill="#CFDDF8"/>
<rect x="145" y="301" width="13" height="13" fill="#A0C6B7"/>
<rect x="158" y="288" width="13" height="13" fill="#A0C6B7"/>
<rect x="210" y="288" width="13" height="13" fill="#6CB762"/>
<path fill-rule="evenodd" clip-rule="evenodd" d="M249 340H236V353H249H262V340H249Z" fill="#56B33E"/>
<rect x="249" y="327" width="13" height="13" fill="#6CB762"/>
<rect x="223" y="288" width="13" height="13" fill="#B4CCD6"/>
<rect x="262" y="340" width="13" height="13" fill="#7BC274"/>
<rect x="184" y="275" width="13" height="13" fill="#B6CFD6"/>
<rect x="171" y="288" width="13" height="13" fill="#55AD3D"/>
<path fill-rule="evenodd" clip-rule="evenodd" d="M184 288H197H210V301H223H236V314H223V327H210V340H197V353H184H171H158H145H132V327H145V314H158V301H171H184V288Z" fill="#56B33E"/>
<rect x="119" y="197" width="13" height="130" fill="#D7E1FA"/>
<path fill-rule="evenodd" clip-rule="evenodd" d="M184 275H197H210V288H197H184V275Z" fill="#B6CFD6"/>
<path fill-rule="evenodd" clip-rule="evenodd" d="M158 288H145H138.5H132V301V314H138.5H145V301H158V288Z" fill="#C2CFEF"/>
<path fill-rule="evenodd" clip-rule="evenodd" d="M132 249H197H262V262H197H132V249Z" fill="#C7D6F3"/>
<path d="M157.478 414.99C158.524 415.395 159.036 415.993 159.015 416.785L159.011 438.346L158.828 445.302C158.794 446.584 158.23 447.21 157.137 447.181L156.402 447.162C155.735 446.691 155.41 446.155 155.426 445.551L155.599 438.991L155.682 416.583C155.707 415.641 156.305 415.11 157.478 414.99Z" fill="#05032A"/>
<path d="M148.035 414.74C149.08 415.145 149.593 415.743 149.572 416.535L149.568 438.096L149.384 445.052C149.35 446.334 148.787 446.96 147.693 446.932L146.958 446.912C146.291 446.442 145.966 445.905 145.982 445.302L146.155 438.742L146.238 416.334C146.263 415.391 146.862 414.86 148.035 414.74Z" fill="#05032A"/>
<path d="M137.106 416.149C138.53 416.489 139.23 417.148 139.204 418.129C138.799 419.174 138.182 419.686 137.352 419.664C135.964 419.363 135.285 418.648 135.315 417.517C135.717 416.584 136.314 416.128 137.106 416.149ZM139.045 424.123C139.649 424.139 140.143 424.699 140.529 425.803L139.914 429.805L139.844 432.463C139.762 435.555 140.183 439.621 141.106 444.664C140.71 445.37 140.059 445.711 139.155 445.687C137.609 445.646 136.711 441.095 136.46 432.034L136.512 430.055C136.617 426.058 137.462 424.081 139.045 424.123Z" fill="#05032A"/>
<path d="M129.479 427.662C132.035 429.465 133.265 432.176 133.169 435.795C133.039 440.697 131.311 443.99 127.984 445.675L125.826 445.958C124.545 445.924 123.204 445.266 121.804 443.984L121.408 443.973C120.2 445.451 119.086 446.176 118.068 446.149C115.392 446.078 113.913 443.511 113.631 438.448L113.712 435.394C114.102 430.613 115.165 428.246 116.899 428.292C117.842 428.316 118.373 428.915 118.493 430.088C117.586 431.573 117.096 433.673 117.025 436.387L116.996 437.462C117.057 440.859 117.371 442.565 117.936 442.58C118.502 442.595 119.112 441.63 119.767 439.686L119.757 435.781C119.826 433.179 120.482 431.895 121.726 431.928C123.159 431.966 123.838 433.398 123.763 436.226L123.99 436.232L123.33 439.78C123.921 441.682 124.782 442.648 125.913 442.678L126.252 442.687C127.911 442.73 129.033 440.987 129.616 437.456L129.7 434.289C129.732 433.083 129.055 431.574 127.669 429.765L127.456 429.25C127.477 428.458 128.151 427.929 129.479 427.662Z" fill="#05032A"/>
<path d="M215.511 424.917L215.627 424.919C216.405 424.93 216.882 425.56 217.057 426.808C216.025 430.72 215.492 433.746 215.459 435.885C216.444 437.612 217.89 438.49 219.795 438.519C220.293 438.993 220.539 439.483 220.531 439.989L220.52 440.689C220.159 441.422 219.376 441.78 218.17 441.761C217.082 441.667 216.039 441.203 215.041 440.371L214.516 440.363C214.024 444.518 213.428 446.59 212.728 446.579L211.678 446.563C210.83 446.083 210.411 445.532 210.42 444.91L211.662 436.177L211.666 435.944C209.058 430.964 207.764 427.871 207.782 426.665C207.796 425.732 208.465 425.256 209.788 425.238C210.721 425.252 211.554 426.762 212.286 429.768L212.515 430.005L212.865 430.011C213.307 426.594 214.188 424.896 215.511 424.917Z" fill="#05032A"/>
<path d="M199.941 411.142C201.414 411.476 202.143 412.148 202.127 413.159C201.722 414.242 201.091 414.777 200.236 414.764C198.801 414.47 198.093 413.739 198.11 412.573C198.514 411.606 199.124 411.13 199.941 411.142ZM202.033 419.343C202.655 419.352 203.171 419.924 203.582 421.058L202.993 425.192L202.951 427.934C202.903 431.122 203.383 435.311 204.393 440.5C203.992 441.233 203.326 441.592 202.392 441.578C200.798 441.554 199.819 436.871 199.457 427.53L199.488 425.488C199.551 421.366 200.399 419.318 202.033 419.343Z" fill="#05032A"/>
<path d="M192.555 415.172C194.383 415.2 195.617 417.163 196.257 421.063L196.254 421.296C196.24 422.191 195.629 422.706 194.421 422.843C193.449 422.829 192.807 421.613 192.494 419.196L192.263 419.018L191.563 419.007C190.688 420.239 190.235 421.865 190.205 423.887L190.335 426.807C191.89 426.831 193.588 426.448 195.429 425.66C196.167 425.671 196.84 426.206 197.446 427.266C197.422 428.86 195.228 429.877 190.865 430.316L192.177 439.846C192.165 440.663 191.476 441.177 190.112 441.39C188.906 441.371 188.332 439.496 188.389 435.762L187.357 430.787L183.556 431.312C182.739 431.3 182.262 430.69 182.125 429.482C182.143 428.315 183.73 427.6 186.884 427.337L186.706 423.717C187.417 417.971 189.366 415.123 192.555 415.172Z" fill="#05032A"/>
<path d="M298.403 421.643C299.4 421.669 300.039 423.367 300.321 426.736C299.928 427.649 299.307 428.095 298.458 428.073C297.87 427.946 297.297 427.248 296.739 425.978L295.751 425.62C294.016 425.575 292.417 426.678 290.955 428.931L290.942 429.429C290.928 429.983 293.506 430.973 298.678 432.4C300.823 433.749 301.871 435.346 301.823 437.192C301.745 440.219 299.241 442.74 294.313 444.755L292.255 445.034C289.163 444.621 287.652 443.03 287.724 440.262L287.729 440.096C287.752 439.21 288.337 438.708 289.485 438.59C290.371 438.613 290.938 439.551 291.186 441.404L291.62 441.748L292.561 441.773C294.666 441.827 296.659 440.438 298.543 437.606L298.562 436.886C298.59 435.778 296.199 434.682 291.388 433.597C288.868 432.497 287.631 431.024 287.679 429.178C287.742 426.779 289.812 424.579 293.89 422.579C295.668 422.404 297.172 422.092 298.403 421.643Z" fill="#05032A"/>
<path d="M279.938 414.737C281.333 415.068 282.019 415.714 281.994 416.674C281.598 417.698 280.994 418.2 280.181 418.179C278.822 417.885 278.157 417.184 278.186 416.077C278.579 415.163 279.163 414.717 279.938 414.737ZM281.841 422.544C282.432 422.559 282.917 423.107 283.295 424.188L282.695 428.107L282.627 430.71C282.549 433.737 282.962 437.719 283.869 442.655C283.481 443.347 282.845 443.682 281.959 443.659C280.445 443.619 279.563 439.164 279.313 430.291L279.363 428.353C279.465 424.44 280.291 422.504 281.841 422.544Z" fill="#05032A"/>
<path d="M265.475 412.644C266.509 412.671 266.993 413.939 266.928 416.449L267.345 425.991L267.567 425.997L270.363 425.017C273.464 425.097 275.264 428.321 275.764 434.687C275.976 436.503 276.036 439.164 275.945 442.671L275.829 447.157C275.792 448.56 275.257 449.248 274.223 449.221L274.002 449.215C273.009 449.041 272.525 448.493 272.548 447.57L272.684 442.365C272.9 434.022 272.207 429.386 270.606 428.458L270.274 428.45C269.166 428.421 268.31 430.098 267.705 433.481L267.625 436.582C267.481 442.119 266.948 444.876 266.025 444.852L264.97 444.936C263.936 444.909 263.459 443.363 263.539 440.299C263.734 437.054 264.024 434.401 264.41 432.343L263.72 414.094C263.745 413.135 264.33 412.651 265.475 412.644Z" fill="#05032A"/>
<path d="M250.079 409.197C251.107 409.445 251.61 409.975 251.589 410.787L251.194 413.215L251.175 413.935C251.133 415.56 251.273 417.281 251.595 419.099L251.706 419.102C256.022 417.921 258.696 417.344 259.73 417.371C260.793 417.694 261.314 418.243 261.294 419.018C261.262 420.274 259.972 420.868 257.425 420.802L251.612 422.702C251.483 427.685 251.843 434.473 252.691 443.066C252.444 444.057 251.896 444.541 251.047 444.519L250.936 444.516C249.644 444.483 249.041 442.805 249.127 439.482C248.711 436.996 248.444 431.615 248.327 423.337L247.33 423.311C243.866 422.999 242.152 422.142 242.188 420.739C242.198 420.333 242.599 419.845 243.39 419.274L243.943 419.289L246.473 420.019L248.245 420.065L247.926 413.131C247.995 410.473 248.713 409.161 250.079 409.197Z" fill="#05032A"/>
<path d="M172.73 480.714C173.505 480.694 173.983 481.31 174.163 482.561C173.975 483.859 173.345 484.522 172.275 484.549C171.536 484.568 171.003 483.936 170.674 482.651C171.085 481.385 171.77 480.739 172.73 480.714Z" fill="#05032A"/>
<path d="M162.672 480.973C163.447 480.953 163.924 481.569 164.104 482.82C163.916 484.118 163.287 484.781 162.216 484.808C161.478 484.827 160.944 484.194 160.616 482.91C161.027 481.643 161.712 480.998 162.672 480.973Z" fill="#05032A"/>
<path d="M152.613 481.232C153.389 481.212 153.866 481.828 154.046 483.079C153.858 484.377 153.228 485.039 152.158 485.067C151.419 485.086 150.886 484.453 150.557 483.169C150.968 481.902 151.653 481.256 152.613 481.232Z" fill="#05032A"/>
<path d="M259.907 483.662C260.683 483.642 261.16 484.258 261.34 485.509C261.152 486.807 260.523 487.469 259.452 487.497C258.714 487.516 258.18 486.883 257.852 485.599C258.262 484.332 258.948 483.687 259.907 483.662Z" fill="#05032A"/>
<path d="M268.747 482.483C269.522 482.463 269.999 483.079 270.179 484.33C269.991 485.628 269.362 486.291 268.291 486.318C267.553 486.337 267.019 485.705 266.691 484.42C267.101 483.154 267.787 482.508 268.747 482.483Z" fill="#05032A"/>
<path d="M278.175 484.84C278.951 484.82 279.428 485.436 279.608 486.687C279.42 487.985 278.79 488.648 277.72 488.675C276.981 488.694 276.448 488.062 276.119 486.777C276.53 485.511 277.215 484.865 278.175 484.84Z" fill="#05032A"/>
<path d="M235.703 465.387C238.848 465.565 240.456 467.057 240.528 469.862L240.657 470.579L240.769 479.221C240.794 480.218 241.401 481.55 242.589 483.219L242.592 483.33C242.324 484.408 241.803 484.957 241.028 484.977C238.714 484.076 237.518 482.075 237.438 478.974L237.419 478.254L237.25 478.148L237.411 477.922L237.408 477.811L237.377 470.165C237.35 469.095 236.875 468.571 235.952 468.595L235.287 468.612C233.46 469.398 232.641 473.464 232.83 480.81C232.896 483.358 232.283 484.648 230.991 484.681C229.994 484.707 229.461 484.092 229.392 482.838L229.249 477.301C229.065 470.139 229.6 466.542 230.856 466.51L231.405 466.329L232.572 466.465C233.552 465.775 234.595 465.416 235.703 465.387Z" fill="#05032A"/>
<path d="M219.57 463.586C222.302 463.516 224.421 465.493 225.929 469.518L226.18 470.675C226.282 474.625 224.54 478.715 220.955 482.944C219.513 484.348 218.035 485.07 216.522 485.109C214.307 485.166 212.705 483.932 211.717 481.409C211.354 480.236 211.161 479.207 211.139 478.321L211.122 477.656C210.971 471.823 212.98 467.339 217.148 464.202C217.877 463.814 218.684 463.609 219.57 463.586ZM214.403 478.126C214.467 480.636 215.146 481.875 216.438 481.842C219.133 481.772 221.277 478.263 222.872 471.314L222.845 470.262C222.158 467.989 220.966 466.875 219.268 466.918C218.603 466.936 218.283 467.406 218.307 468.328C218.323 468.956 217.597 469.473 216.13 469.881C214.894 472.092 214.318 474.84 214.403 478.126Z" fill="#05032A"/>
<path d="M201.833 464.042C204.565 463.972 206.684 465.949 208.192 469.974L208.443 471.131C208.545 475.081 206.803 479.171 203.217 483.401C201.776 484.805 200.298 485.526 198.785 485.565C196.57 485.622 194.968 484.389 193.98 481.865C193.617 480.692 193.424 479.663 193.402 478.777L193.384 478.112C193.234 472.28 195.243 467.795 199.411 464.659C200.139 464.271 200.947 464.065 201.833 464.042ZM196.666 478.582C196.73 481.092 197.409 482.331 198.701 482.298C201.396 482.228 203.54 478.719 205.135 471.77L205.108 470.718C204.421 468.446 203.229 467.331 201.531 467.375C200.866 467.392 200.546 467.862 200.57 468.785C200.586 469.412 199.86 469.93 198.393 470.337C197.157 472.548 196.581 475.297 196.666 478.582Z" fill="#05032A"/>
<path d="M187.083 462.87C188.08 462.845 188.806 464.507 189.262 467.857C188.916 468.789 188.319 469.266 187.47 469.288C186.876 469.192 186.268 468.525 185.645 467.285L184.64 466.978C182.905 467.023 181.365 468.208 180.021 470.532L180.034 471.031C180.048 471.585 182.675 472.44 187.913 473.599C190.125 474.835 191.254 476.376 191.302 478.221C191.379 481.249 189.009 483.895 184.191 486.162L182.151 486.547C179.042 486.294 177.451 484.784 177.38 482.015L177.376 481.849C177.353 480.963 177.912 480.431 179.052 480.254C179.938 480.232 180.553 481.139 180.896 482.977L181.347 483.298L182.289 483.274C184.393 483.22 186.312 481.73 188.047 478.804L188.029 478.084C188 476.977 185.556 476.005 180.695 475.17C178.121 474.202 176.81 472.795 176.763 470.949C176.701 468.549 178.655 466.245 182.625 464.038C184.391 463.771 185.877 463.381 187.083 462.87Z" fill="#05032A"/>
<path d="M91.8053 413.201C92.6549 413.201 93.2035 413.679 93.4513 414.633L93.1327 418.01V419.098C94.0177 426.998 94.5664 433.142 94.7788 437.531C95.1681 441.614 95.5752 443.656 96 443.656C96 444.457 95.3805 444.972 94.1416 445.201C92.3717 445.201 91.4867 441.347 91.4867 433.638L90 418.754V418.239C90 414.881 90.6018 413.201 91.8053 413.201Z" fill="#05032A"/>
</svg>
