<svg width="513" height="342" viewBox="0 0 513 342" fill="none" xmlns="http://www.w3.org/2000/svg">
<g clip-path="url(#clip0_35_678)">
<path d="M513 342H0V0H513V342Z" fill="white"/>
<path d="M262.078 280C262.078 280 260.316 236.867 260.316 232.589C260.316 228.278 264.012 226.821 268.377 227.732C272.774 228.703 313.844 236.867 313.844 236.867C313.844 236.867 310.718 228.156 308.521 221.69C306.353 215.225 309.201 214.072 310.718 212.737L356.619 173.73L349.376 170.24C344.981 168.222 345.663 164.594 346.343 162.181L354.328 134.605C354.328 134.605 335.201 138.839 330.712 139.507C327.154 140.053 325.914 138.43 324.802 136.001L319.075 122.585L295.087 148.507C290.571 152.544 286.205 149.448 287.01 144.743C287.783 140.463 299.049 89.5295 299.049 89.5295C299.049 89.5295 286.609 96.7844 282.491 99.2119C278.39 101.625 276.193 101.215 274.011 97.3306C271.812 93.4294 256.446 63.1569 256.446 63.1569C256.446 63.1569 241.078 93.4294 238.898 97.3306C236.699 101.215 234.518 101.625 230.401 99.2119C226.284 96.7844 213.842 89.5295 213.842 89.5295C213.842 89.5295 225.139 140.463 225.882 144.743C226.702 149.448 222.323 152.544 217.804 148.507L193.816 122.585L188.075 136.001C186.976 138.43 185.754 140.053 182.18 139.507C177.707 138.839 157.79 134.605 157.79 134.605L166.549 162.181C167.23 164.594 167.911 168.222 163.532 170.24L156.273 173.73L202.173 212.737C203.689 214.072 206.568 215.225 204.371 221.69C202.173 228.156 199.031 236.867 199.031 236.867C199.031 236.867 240.136 228.703 244.514 227.732C248.91 226.821 252.592 228.278 252.592 232.589C252.592 236.867 250.813 280 250.813 280H262.078Z" fill="#ED1C24"/>
<path d="M128 342V1.19209e-06L0 0V342H128Z" fill="#ED1C24"/>
<path d="M513 342V0H385V342H513Z" fill="#ED1C24"/>
</g>
<defs>
<clipPath id="clip0_35_678">
<rect width="513" height="342" fill="white"/>
</clipPath>
</defs>
</svg>
