<svg width="61" height="24" viewBox="0 0 61 24" fill="none" xmlns="http://www.w3.org/2000/svg">
<circle cx="56" cy="19" r="3" fill="#8688F6"/>
<rect x="5" y="8" width="2" height="2" fill="#39383F"/>
<rect x="8" y="8" width="2" height="2" fill="#39383F"/>
<rect x="11" y="8" width="2" height="2" fill="#39383F"/>
<rect x="2" y="11" width="2" height="2" fill="#39383F"/>
<rect x="5" y="14" width="2" height="2" fill="#39383F"/>
<rect x="8" y="14" width="2" height="2" fill="#39383F"/>
<rect x="11" y="14" width="2" height="2" fill="#39383F"/>
<rect x="14" y="17" width="2" height="2" fill="#39383F"/>
<rect x="11" y="20" width="2" height="2" fill="#39383F"/>
<rect x="8" y="20" width="2" height="2" fill="#39383F"/>
<rect x="5" y="20" width="2" height="2" fill="#39383F"/>
<rect x="2" y="20" width="2" height="2" fill="#39383F"/>
<rect x="19" y="20" width="2" height="2" fill="#39383F"/>
<rect x="19" y="17" width="2" height="2" fill="#39383F"/>
<rect x="19" y="14" width="2" height="2" fill="#39383F"/>
<rect x="19" y="11" width="2" height="2" fill="#39383F"/>
<rect x="19" y="8" width="2" height="2" fill="#39383F"/>
<rect x="22" y="11" width="2" height="2" fill="#39383F"/>
<rect x="25" y="8" width="2" height="2" fill="#39383F"/>
<rect x="28" y="8" width="2" height="2" fill="#39383F"/>
<rect x="36" y="8" width="2" height="2" fill="#39383F"/>
<rect x="39" y="8" width="2" height="2" fill="#39383F"/>
<rect x="42" y="8" width="2" height="2" fill="#39383F"/>
<rect x="45" y="8" width="2" height="2" fill="#39383F"/>
<rect x="48" y="8" width="2" height="2" fill="#39383F"/>
<rect x="45" y="11" width="2" height="2" fill="#39383F"/>
<rect x="42" y="14" width="2" height="2" fill="#39383F"/>
<rect x="39" y="17" width="2" height="2" fill="#39383F"/>
<rect x="36" y="20" width="2" height="2" fill="#39383F"/>
<rect x="39" y="20" width="2" height="2" fill="#39383F"/>
<rect x="42" y="20" width="2" height="2" fill="#39383F"/>
<rect x="45" y="20" width="2" height="2" fill="#39383F"/>
<rect x="48" y="20" width="2" height="2" fill="#39383F"/>
<rect x="31" y="11" width="2" height="2" fill="#39383F"/>
<rect x="31" y="14" width="2" height="2" fill="#39383F"/>
<rect x="31" y="17" width="2" height="2" fill="#39383F"/>
<rect x="31" y="20" width="2" height="2" fill="#39383F"/>
<rect x="19" y="5" width="2" height="2" fill="#39383F"/>
<rect x="19" y="2" width="2" height="2" fill="#39383F"/>
</svg>
